<?xml version="1.0" standalone="no"?>
<!DOCTYPE svg PUBLIC "-//W3C//DTD SVG 20010904//EN"
 "http://www.w3.org/TR/2001/REC-SVG-20010904/DTD/svg10.dtd">
<svg version="1.0" xmlns="http://www.w3.org/2000/svg"
 width="512.000000pt" height="512.000000pt" viewBox="0 0 512.000000 512.000000"
 preserveAspectRatio="xMidYMid meet">
<metadata>
Created by potrace 1.14, written by Peter Selinger 2001-2017
</metadata>
<g transform="translate(0.000000,512.000000) scale(0.100000,-0.100000)"
fill="#000000" stroke="none">
<path d="M3048 5015 c-2 -2 -32 -5 -68 -8 -212 -18 -384 -103 -486 -239 -113
-148 -114 -304 -4 -390 l31 -24 -48 -28 c-206 -118 -316 -224 -382 -368 -74
-163 -74 -341 -2 -556 16 -48 28 -88 27 -89 -2 -2 -24 13 -51 32 -45 31 -49
37 -52 81 -15 228 -208 406 -509 469 -80 17 -242 22 -324 10 -43 -6 -63 -9
-132 -20 -194 -32 -533 -154 -733 -266 -134 -74 -166 -115 -129 -167 18 -26
41 -27 141 -8 68 13 204 13 283 1 163 -26 333 -86 555 -197 178 -90 180 -90
250 -112 87 -27 148 -37 221 -38 129 -1 217 32 300 112 l44 42 87 -70 c106
-84 194 -174 217 -222 9 -19 46 -82 82 -140 107 -173 213 -410 238 -535 3 -11
9 -41 15 -66 27 -116 32 -318 12 -432 -20 -111 -22 -121 -42 -207 -28 -118
-28 -119 -41 -96 -24 43 -182 208 -245 257 -24 18 -32 34 -37 67 -36 271 -208
492 -486 625 -87 41 -223 93 -267 101 -10 2 -36 9 -58 15 -22 5 -56 13 -75 16
-19 3 -42 8 -50 10 -8 2 -41 7 -73 10 -32 4 -68 8 -80 11 -89 17 -532 24 -622
10 -60 -10 -85 -30 -85 -70 0 -29 7 -40 43 -67 124 -96 324 -286 383 -365 241
-322 481 -513 722 -574 188 -48 408 -11 554 92 16 11 36 17 47 13 18 -5 133
-118 184 -180 14 -17 48 -64 76 -105 51 -74 52 -75 29 -84 -101 -38 -168 -87
-229 -165 l-26 -33 -49 17 c-66 23 -194 23 -259 1 -102 -35 -190 -105 -241
-192 -15 -26 -43 -53 -70 -69 -66 -39 -130 -109 -167 -184 -60 -121 -43 -276
41 -380 45 -56 121 -109 192 -133 65 -22 70 -22 835 -23 745 0 852 3 905 26
94 42 149 84 192 147 115 167 74 389 -94 515 -20 15 -43 27 -52 27 -8 0 -29
27 -47 61 -52 97 -162 186 -274 221 -55 17 -181 18 -236 2 l-51 -15 -49 54
c-49 55 -124 107 -153 107 -9 0 -16 3 -16 8 0 25 25 152 46 241 14 57 27 111
29 120 61 298 95 392 192 520 28 37 34 41 39 25 68 -191 208 -334 329 -334
143 0 326 103 500 283 111 113 135 143 197 234 71 106 67 98 143 279 76 181
186 398 226 447 15 18 51 46 80 62 48 26 63 30 139 29 63 0 99 -5 140 -21 70
-27 118 -52 125 -64 4 -5 19 -9 35 -9 33 0 70 33 70 63 0 41 -80 133 -180 207
-143 105 -281 152 -460 156 -236 5 -459 -67 -684 -221 -90 -62 -263 -155 -316
-170 -14 -4 -68 -28 -120 -53 -302 -143 -446 -305 -436 -487 4 -66 48 -161
101 -217 19 -20 35 -40 35 -43 0 -4 -22 -32 -50 -64 -27 -32 -50 -62 -50 -68
0 -6 -7 -16 -15 -23 -13 -11 -15 -8 -15 16 0 16 -7 58 -16 94 -9 36 -17 72
-19 80 -30 133 -128 359 -218 502 -81 130 -202 364 -246 478 -18 47 -37 94
-41 105 -22 55 -52 189 -54 241 -5 138 46 275 142 376 26 28 90 78 142 113
147 96 135 95 135 12 0 -145 77 -221 223 -219 177 2 334 95 482 287 113 147
271 302 348 343 98 51 262 79 376 62 50 -7 85 6 92 36 11 44 -5 63 -89 103
-136 65 -384 160 -458 175 -13 3 -35 8 -49 11 -74 16 -188 35 -250 41 -66 6
-209 12 -212 9z"/>
</g>
</svg>
